<svg xmlns="http://www.w3.org/2000/svg" xmlns:xlink="http://www.w3.org/1999/xlink" width="19.717" height="19.717" viewBox="0 0 19.717 19.717">
  <defs>
    <clipPath id="clip-path">
      <rect id="Rectangle_2846" data-name="Rectangle 2846" width="19.717" height="19.717" fill="#1d1d1d"/>
    </clipPath>
  </defs>
  <g id="Group_7700" data-name="Group 7700" clip-path="url(#clip-path)">
    <path id="Path_22154" data-name="Path 22154" d="M14.706,12.391a2.317,2.317,0,1,1-2.321-2.321,2.323,2.323,0,0,1,2.321,2.321" transform="translate(-2.53 -2.529)" fill="#1d1d1d"/>
    <g id="Group_11951" data-name="Group 11951">
      <g id="Group_11952" data-name="Group 11952">
        <path id="Path_22155" data-name="Path 22155" d="M19.462,12.1a10.01,10.01,0,0,0,.255-2.239,9.658,9.658,0,0,0-.262-2.246H17.148A7.55,7.55,0,0,0,16.594,6.3l1.64-1.647a9.846,9.846,0,0,0-3.175-3.16L13.427,3.123V3.13A7.389,7.389,0,0,0,12.1,2.576V.255A10.01,10.01,0,0,0,9.862,0,9.658,9.658,0,0,0,7.616.262V2.576A8.141,8.141,0,0,0,6.3,3.123l-1.64-1.64A9.892,9.892,0,0,0,1.483,4.658L3.123,6.3a7.521,7.521,0,0,0-.547,1.318H.262A9.658,9.658,0,0,0,0,9.862,10.01,10.01,0,0,0,.255,12.1H2.576a7.363,7.363,0,0,0,.547,1.325L1.49,15.059a9.846,9.846,0,0,0,3.16,3.175l1.64-1.64a7.389,7.389,0,0,0,1.325.554v2.306a9.658,9.658,0,0,0,2.246.262,10.01,10.01,0,0,0,2.239-.255V17.148a7.871,7.871,0,0,0,1.318-.547h.007l1.64,1.632a10,10,0,0,0,3.168-3.168L16.6,13.427h-.007a7.388,7.388,0,0,0,.554-1.325ZM9.855,14.056a4.193,4.193,0,1,1,4.193-4.193,4.19,4.19,0,0,1-4.193,4.193" fill="#1d1d1d"/>
      </g>
    </g>
  </g>
</svg>
